<mxfile host="Electron" modified="2023-12-03T19:09:51.663Z" agent="Mozilla/5.0 (X11; Linux x86_64) AppleWebKit/537.36 (KHTML, like Gecko) draw.io/22.1.2 Chrome/114.0.5735.289 Electron/25.9.4 Safari/537.36" etag="JPdfLnx2Vnv2MqmgjBUO" version="22.1.2" type="device">
  <diagram name="Page-1" id="sUtZUhrDni2kjcrQJbx3">
    <mxGraphModel dx="1239" dy="731" grid="1" gridSize="10" guides="1" tooltips="1" connect="1" arrows="1" fold="1" page="1" pageScale="1" pageWidth="827" pageHeight="1169" math="0" shadow="0">
      <root>
        <mxCell id="0" />
        <mxCell id="1" parent="0" />
        <mxCell id="azy8R_Z3eTaHkKHLKna5-1" value="" style="rounded=1;whiteSpace=wrap;html=1;dashed=1;" vertex="1" parent="1">
          <mxGeometry x="70" y="60" width="350" height="180" as="geometry" />
        </mxCell>
        <mxCell id="azy8R_Z3eTaHkKHLKna5-2" value="Client" style="text;html=1;align=center;verticalAlign=middle;resizable=0;points=[];autosize=1;strokeColor=none;fillColor=none;" vertex="1" parent="1">
          <mxGeometry x="85" y="70" width="50" height="30" as="geometry" />
        </mxCell>
        <mxCell id="azy8R_Z3eTaHkKHLKna5-3" value="" style="rounded=1;whiteSpace=wrap;html=1;dashed=1;" vertex="1" parent="1">
          <mxGeometry x="70" y="270" width="350" height="150" as="geometry" />
        </mxCell>
        <mxCell id="azy8R_Z3eTaHkKHLKna5-4" value="Web Server" style="text;html=1;align=center;verticalAlign=middle;resizable=0;points=[];autosize=1;strokeColor=none;fillColor=none;" vertex="1" parent="1">
          <mxGeometry x="65" y="280" width="90" height="30" as="geometry" />
        </mxCell>
        <mxCell id="azy8R_Z3eTaHkKHLKna5-5" value="" style="rounded=1;whiteSpace=wrap;html=1;dashed=1;" vertex="1" parent="1">
          <mxGeometry x="70" y="460" width="610" height="170" as="geometry" />
        </mxCell>
        <mxCell id="azy8R_Z3eTaHkKHLKna5-6" value="App Server" style="text;html=1;align=center;verticalAlign=middle;resizable=0;points=[];autosize=1;strokeColor=none;fillColor=none;" vertex="1" parent="1">
          <mxGeometry x="70" y="480" width="80" height="30" as="geometry" />
        </mxCell>
        <mxCell id="azy8R_Z3eTaHkKHLKna5-19" style="edgeStyle=orthogonalEdgeStyle;rounded=0;orthogonalLoop=1;jettySize=auto;html=1;exitX=0.25;exitY=1;exitDx=0;exitDy=0;entryX=0.25;entryY=0;entryDx=0;entryDy=0;" edge="1" parent="1" source="azy8R_Z3eTaHkKHLKna5-7" target="azy8R_Z3eTaHkKHLKna5-16">
          <mxGeometry relative="1" as="geometry" />
        </mxCell>
        <mxCell id="azy8R_Z3eTaHkKHLKna5-7" value="Web Browser&lt;br&gt;(React)" style="rounded=1;whiteSpace=wrap;html=1;" vertex="1" parent="1">
          <mxGeometry x="90" y="120" width="120" height="60" as="geometry" />
        </mxCell>
        <mxCell id="azy8R_Z3eTaHkKHLKna5-11" style="edgeStyle=orthogonalEdgeStyle;rounded=0;orthogonalLoop=1;jettySize=auto;html=1;exitX=0.16;exitY=0.55;exitDx=0;exitDy=0;exitPerimeter=0;entryX=1;entryY=0.5;entryDx=0;entryDy=0;" edge="1" parent="1" source="azy8R_Z3eTaHkKHLKna5-9" target="azy8R_Z3eTaHkKHLKna5-7">
          <mxGeometry relative="1" as="geometry" />
        </mxCell>
        <mxCell id="azy8R_Z3eTaHkKHLKna5-9" value="&lt;span style=&quot;color: rgb(240, 240, 240); font-family: Helvetica; font-size: 12px; font-style: normal; font-variant-ligatures: normal; font-variant-caps: normal; font-weight: 400; letter-spacing: normal; orphans: 2; text-align: center; text-indent: 0px; text-transform: none; widows: 2; word-spacing: 0px; -webkit-text-stroke-width: 0px; background-color: rgb(27, 29, 30); text-decoration-thickness: initial; text-decoration-style: initial; text-decoration-color: initial; float: none; display: inline !important;&quot;&gt;Implementing the user ui and the dynamic map&lt;/span&gt;" style="ellipse;shape=cloud;whiteSpace=wrap;html=1;" vertex="1" parent="1">
          <mxGeometry x="240" y="80" width="160" height="125" as="geometry" />
        </mxCell>
        <mxCell id="azy8R_Z3eTaHkKHLKna5-15" style="edgeStyle=orthogonalEdgeStyle;rounded=0;orthogonalLoop=1;jettySize=auto;html=1;exitX=1;exitY=1;exitDx=0;exitDy=0;entryX=0;entryY=0.75;entryDx=0;entryDy=0;" edge="1" parent="1" source="azy8R_Z3eTaHkKHLKna5-13" target="azy8R_Z3eTaHkKHLKna5-7">
          <mxGeometry relative="1" as="geometry" />
        </mxCell>
        <mxCell id="azy8R_Z3eTaHkKHLKna5-13" value="OpenStreetMapAPI" style="rhombus;whiteSpace=wrap;html=1;" vertex="1" parent="1">
          <mxGeometry x="-130" y="90" width="140" height="120" as="geometry" />
        </mxCell>
        <mxCell id="azy8R_Z3eTaHkKHLKna5-14" style="edgeStyle=orthogonalEdgeStyle;rounded=0;orthogonalLoop=1;jettySize=auto;html=1;exitX=0;exitY=0.25;exitDx=0;exitDy=0;entryX=0.821;entryY=0.292;entryDx=0;entryDy=0;entryPerimeter=0;" edge="1" parent="1" source="azy8R_Z3eTaHkKHLKna5-7" target="azy8R_Z3eTaHkKHLKna5-13">
          <mxGeometry relative="1" as="geometry" />
        </mxCell>
        <mxCell id="azy8R_Z3eTaHkKHLKna5-20" style="edgeStyle=orthogonalEdgeStyle;rounded=0;orthogonalLoop=1;jettySize=auto;html=1;exitX=0.5;exitY=0;exitDx=0;exitDy=0;entryX=0.75;entryY=1;entryDx=0;entryDy=0;" edge="1" parent="1" source="azy8R_Z3eTaHkKHLKna5-16" target="azy8R_Z3eTaHkKHLKna5-7">
          <mxGeometry relative="1" as="geometry" />
        </mxCell>
        <mxCell id="azy8R_Z3eTaHkKHLKna5-22" style="edgeStyle=orthogonalEdgeStyle;rounded=0;orthogonalLoop=1;jettySize=auto;html=1;exitX=0.25;exitY=1;exitDx=0;exitDy=0;" edge="1" parent="1" source="azy8R_Z3eTaHkKHLKna5-16" target="azy8R_Z3eTaHkKHLKna5-18">
          <mxGeometry relative="1" as="geometry" />
        </mxCell>
        <mxCell id="azy8R_Z3eTaHkKHLKna5-16" value="Calculate the closest, or search function&amp;nbsp;" style="rounded=1;whiteSpace=wrap;html=1;" vertex="1" parent="1">
          <mxGeometry x="85" y="315" width="260" height="60" as="geometry" />
        </mxCell>
        <mxCell id="azy8R_Z3eTaHkKHLKna5-23" style="edgeStyle=orthogonalEdgeStyle;rounded=0;orthogonalLoop=1;jettySize=auto;html=1;exitX=0.855;exitY=0;exitDx=0;exitDy=4.35;exitPerimeter=0;entryX=0.5;entryY=1;entryDx=0;entryDy=0;" edge="1" parent="1" source="azy8R_Z3eTaHkKHLKna5-18" target="azy8R_Z3eTaHkKHLKna5-16">
          <mxGeometry relative="1" as="geometry" />
        </mxCell>
        <mxCell id="azy8R_Z3eTaHkKHLKna5-18" value="Wine database" style="shape=cylinder3;whiteSpace=wrap;html=1;boundedLbl=1;backgroundOutline=1;size=15;" vertex="1" parent="1">
          <mxGeometry x="110" y="500" width="130" height="100" as="geometry" />
        </mxCell>
        <mxCell id="azy8R_Z3eTaHkKHLKna5-26" style="edgeStyle=orthogonalEdgeStyle;rounded=0;orthogonalLoop=1;jettySize=auto;html=1;exitX=0;exitY=0.5;exitDx=0;exitDy=0;" edge="1" parent="1" source="azy8R_Z3eTaHkKHLKna5-24" target="azy8R_Z3eTaHkKHLKna5-25">
          <mxGeometry relative="1" as="geometry" />
        </mxCell>
        <mxCell id="azy8R_Z3eTaHkKHLKna5-24" value="Raw Data" style="shape=hexagon;perimeter=hexagonPerimeter2;whiteSpace=wrap;html=1;fixedSize=1;" vertex="1" parent="1">
          <mxGeometry x="500" y="505" width="160" height="80" as="geometry" />
        </mxCell>
        <mxCell id="azy8R_Z3eTaHkKHLKna5-27" style="edgeStyle=orthogonalEdgeStyle;rounded=0;orthogonalLoop=1;jettySize=auto;html=1;exitX=0;exitY=0.5;exitDx=0;exitDy=0;" edge="1" parent="1" source="azy8R_Z3eTaHkKHLKna5-25" target="azy8R_Z3eTaHkKHLKna5-18">
          <mxGeometry relative="1" as="geometry" />
        </mxCell>
        <mxCell id="azy8R_Z3eTaHkKHLKna5-25" value="Pipe and filter" style="rounded=1;whiteSpace=wrap;html=1;" vertex="1" parent="1">
          <mxGeometry x="290" y="525" width="170" height="40" as="geometry" />
        </mxCell>
      </root>
    </mxGraphModel>
  </diagram>
</mxfile>
